# xmcd
#
# Track frame offsets:
#	150
#	16069
#	33910
#	45546
#	58224
#	70891
#	81532
#	94146
#	107906
#	119903
#	135965
#	149721
#	162979
#
# Disc length: 2413 seconds
#
# Revision: 1
# Processed by: cddbd v1.4PL0 Copyright (c) Steve Scherf et al.
# Submitted via: audiograbber 1.81.02
#
DISCID=bd096b0d
DTITLE=Claude Francois - For ever cd 1
DYEAR=1900
DGENRE=Blues
TTITLE0=Chanson populaire
TTITLE1=Sha la la
TTITLE2=Pour un peu de bonheur
TTITLE3=Notre dernière chansons ensemble
TTITLE4=La maison va revivre
TTITLE5=J'ai perdu ma chance
TTITLE6=Jamais non rien jamais
TTITLE7=Fille sauvage
TTITLE8=Le mal aimé
TTITLE9=Heureusement tu pense à moi
TTITLE10=Quand la pluie finira de tomber
TTITLE11=C'est toujours le même refrain
TTITLE12=Le téléphone pleure(avec la petite Frédérique)
EXTD=
EXTT0=
EXTT1=
EXTT2=
EXTT3=
EXTT4=
EXTT5=
EXTT6=
EXTT7=
EXTT8=
EXTT9=
EXTT10=
EXTT11=
EXTT12=
PLAYORDER=
